<?xml version="1.0" encoding="utf-8"?>
<!-- Generator: Adobe Illustrator 27.5.0, SVG Export Plug-In . SVG Version: 6.00 Build 0)  -->
<svg version="1.1" xmlns="http://www.w3.org/2000/svg" xmlns:xlink="http://www.w3.org/1999/xlink" x="0px" y="0px"
	 viewBox="0 0 750 500" style="enable-background:new 0 0 750 500;" xml:space="preserve">
<g id="BACKGROUND">
	<rect style="fill:#FFFFFF;" width="750" height="500"/>
</g>
<g id="OBJECTS">
	<g>
		<g style="opacity:0.3;">
			<path style="fill:#FF9536;" d="M649.327,297.496c-4.331-20.634-8.857-41.743-19.623-59.558
				c-9.2-15.224-22.433-27.157-35.464-38.851c-16.363-14.683-32.849-29.457-51.509-40.676
				c-17.923-10.776-37.674-18.16-54.613-30.584c-14.473-10.616-26.439-24.585-40.24-36.157
				c-37.162-31.158-87.92-43.406-134.206-32.385c-15.098,3.595-29.817,9.596-42.504,18.957
				c-15.72,11.598-27.794,27.898-42.792,40.517c-19.451,16.367-43.298,26.122-62.693,42.563
				c-28.808,24.421-45.326,61.396-57.473,98.241c-11.646,35.325-20.333,72.08-36.846,105.104h592.008
				C658.699,342.276,654.026,319.883,649.327,297.496z"/>
		</g>
		<g style="opacity:0.3;">
			<path style="fill:#2D965F;" d="M57.972,364.669c6.442,20.086,25.999,34.278,46.565,40.521c21.533,6.537,44.486,6.075,66.992,7.01
				c33.251,1.382,66.366,5.948,98.73,13.614c26.778,6.343,53.215,14.832,80.638,17.296c74.964,6.738,146.32-31.808,221.164-39.743
				c20.265-2.148,40.716-2.035,61.004-3.964c11.933-1.134,24.639-3.37,33.232-11.631c6.052-5.818,8.829-15.569,6.307-23.104H57.972z
				"/>
		</g>
		<path style="opacity:0.5;fill:#FF9536;" d="M678.227,117.931c-0.117-5.079-0.92-11.02-2.73-15.77
			c-2.423-6.359-6.633-11.899-11.198-16.856c-2.607-2.832-5.32-5.563-8.53-7.724c-6.725-4.524-15.658-5.835-23.53-4.611
			c-15.095,2.347-26.962,13.741-41.42,17.844c-7.483,2.123-15.348,2.634-22.788,5.007c-10.886,3.472-21.535,11.654-23.983,22.966
			h134.189C678.24,118.49,678.234,118.2,678.227,117.931z"/>
		<path style="opacity:0.5;fill:#FF9536;" d="M251.51,126.56c-0.168-1.962-0.71-4.182-1.243-6.078
			c-0.806-2.884-2.573-5.371-4.347-7.718c-5.39-7.133-13.359-11.603-22.238-12.792c-6.512-0.871-13.229,0.227-19.616-1.493
			c-5.565-1.499-10.457-4.746-15.686-7.041c-10.215-4.485-21.062-6.341-31.746-2.146c-11.787,4.627-21.881,14.984-25.854,27.003
			c-0.883,2.671-1.673,5.429-2.047,8.225c-0.094,0.706-0.234,1.382-0.234,2.053h123.014
			C251.511,126.567,251.51,126.563,251.51,126.56z"/>
		<g>
			<path style="fill:#2D965F;" d="M87.338,307.055c-1.422-2.95-3.615-5.563-5.687-8.077c-3.691-4.478-7.699-8.53-11.986-12.435
				c-7.836-7.133-14.389-15.53-18.673-25.277c-1.883-4.285-3.554-8.765-4.891-13.252c-0.322-1.081-0.763-2.215-0.867-3.346
				c-0.018-0.197-0.047-1.351-0.218-1.493c-0.257-0.214-0.152,0.652-0.228,0.977c-0.21,0.902-0.434,1.781-0.627,2.687
				c-0.487,2.277-1.044,4.528-1.44,6.826c-1.152,6.683-1.274,13.403-0.843,20.155c0.332,5.21,0.906,10.492,2.08,15.582
				c0.859,3.725,1.822,7.298,3.235,10.853c1.155,2.905,2.467,5.552,4.108,8.225c1.298,2.115,2.715,4.32,4.319,6.212
				c4.66,5.497,9.793,10.172,16.226,13.475c1.475,0.757,3.14,0.632,4.713,1c1.536,0.357,3.656,0.533,5.186,0.077l8.663-7.973
				C89.954,316.375,89.514,311.573,87.338,307.055z"/>
			<path d="M85.3,325.362c-0.007,0-0.014-0.001-0.021-0.002c-2.678-0.489-5.053-2.017-7.023-3.445
				c-3.649-2.641-6.636-5.692-9.077-8.329c-7.717-8.341-13.88-18.561-17.354-28.776c-1.17-3.442-2.037-6.324-2.725-9.068
				c-0.263-1.044-0.469-2.127-0.668-3.175c-0.254-1.333-0.516-2.711-0.896-4.017c-0.018-0.061,0.017-0.125,0.078-0.143
				c0.06-0.016,0.125,0.018,0.142,0.078c0.383,1.316,0.646,2.7,0.901,4.038c0.199,1.044,0.405,2.124,0.665,3.161
				c0.688,2.739,1.552,5.615,2.72,9.051c3.463,10.185,9.608,20.376,17.305,28.694c2.433,2.629,5.41,5.67,9.042,8.3
				c1.949,1.413,4.297,2.923,6.93,3.404c0.063,0.012,0.104,0.071,0.093,0.134C85.403,325.323,85.354,325.362,85.3,325.362z"/>
		</g>
		<g>
			<path style="fill:#52BA86;" d="M98.826,313.242c0.072-2.922-0.442-6.592-1.423-9.35c-2.711-7.617-7.582-13.95-11.799-20.737
				c-9.253-14.89-16.201-31.33-18.855-48.764c-1.513-9.939-2.05-20.428-0.826-30.437c0.434-3.545,0.982-7.228,1.879-10.69
				c0.323-1.249,0.634-2.496,0.927-3.751c0.084-0.358,0.195-0.71,0.3-1.063c0.034-0.113,0.038-0.406,0.129-0.331
				c0.37,0.308,0.472,1.657,0.592,2.096c0.577,2.109,1.223,4.208,1.935,6.274c1.914,5.552,4.543,11.065,7.166,16.306
				c5.176,10.342,12.713,19.433,18.349,29.532c6.573,11.778,10.687,24.203,12.947,37.44c0.398,2.33,0.711,4.65,0.888,7.01
				c0.135,1.802,0.344,3.575,0.339,5.385c-0.003,1.35-0.038,2.74-0.18,4.08c-0.563,5.337-1.935,11.4-6.08,15.223
				c-1.188,1.098-2.826,2.462-4.564,2.335C99.874,313.75,98.811,313.85,98.826,313.242z"/>
			<g>
				<path d="M100.489,313.585c-0.019,0-0.038-0.005-0.055-0.015c-0.056-0.03-0.076-0.1-0.046-0.155
					c3.326-6.092,7.481-19.305-2.056-39.353c-2.186-4.596-4.85-9.04-7.427-13.337c-1.044-1.74-2.122-3.54-3.154-5.323
					c-4.848-8.383-9.003-17.745-12.349-27.825c-1.461-4.402-2.362-7.973-2.835-11.239c-0.009-0.063,0.035-0.121,0.097-0.13
					c0.066-0.011,0.121,0.035,0.13,0.097c0.471,3.252,1.369,6.811,2.827,11.2c3.341,10.065,7.489,19.413,12.329,27.782
					c1.031,1.782,2.109,3.58,3.152,5.319c2.58,4.303,5.247,8.752,7.438,13.356c3.148,6.618,5.12,13.426,5.701,19.688
					c0.695,7.478-0.534,14.164-3.651,19.874C100.569,313.564,100.529,313.585,100.489,313.585z"/>
			</g>
		</g>
		<path style="fill:#FFD45A;" d="M57.972,364.669h306.041c0.325-1.513-0.205-3.193-0.492-4.766
			c-0.699-3.841-2.124-7.465-3.26-11.199c-5.399-17.73-13.494-35.638-27.096-48.663c-13.775-13.193-30.755-15.037-46.455-24.842
			c-4.998-3.123-8.907-10.988-12.836-15.475c-3.911-4.467-13.85-10.401-19.356-13.032c-12.636-6.04-27.271-1.462-40.342-5.09
			c-8.299-2.304-13.514-8.964-20.782-13.032c-12.664-7.087-24.869-8.244-39.12-5.701c-13.104,2.339-24.675,13.017-33.415,22.398
			c-13.337,14.317-20.773,32.935-29.136,50.292c-2.78,5.771-5.529,12.017-9.169,17.31c-3.017,4.384-6.199,8.681-8.965,13.236
			c-3.912,6.436-7.074,12.517-9.78,19.547c-1.531,3.976-3.539,7.863-4.482,12.012C58.845,359.781,57.972,364.669,57.972,364.669z"/>
		<g>
			<path style="fill:#FFD45A;" d="M645.215,346.747c-3.283-4.29-3.993-10.732-2.995-15.862c0.59-3.033,2.053-5.95,3.38-8.708
				c2.178-4.522,5.408-8.467,8.513-12.378c1.745-2.195,3.468-4.36,5.628-6.175c7.292-6.125,17.122-10.413,26.348-12.59
				c6.04-1.425,12.535-2.008,18.705-1.143c1.49,0.208,3.225,0.255,4.658,0.713c0.082,0.025,1.212,0.307,1.212,0.325
				c0,0.063-0.79,0.492-0.867,0.54c-1.092,0.652-2.152,1.418-3.12,2.242c-3.232,2.76-6.162,5.943-8.365,9.598
				c-5.133,8.51-8.225,18.173-13.982,26.313c-4.725,6.68-11.68,12.31-18.783,16.272c-1.31,0.733-2.677,1.365-4.055,1.958
				C657.003,349.78,648.85,351.5,645.215,346.747z"/>
			<path d="M644.4,345.553c-0.009,0-0.018-0.001-0.026-0.003c-0.062-0.015-0.1-0.076-0.086-0.139
				c0.393-1.692,1.242-3.263,2.063-4.782l0.25-0.464c1.51-2.815,3.058-5.433,4.732-8c7.163-10.98,17.048-20.718,28.585-28.164
				l0.961-0.622c3.109-2.017,6.325-4.102,9.71-5.376c0.06-0.021,0.126,0.007,0.148,0.067c0.023,0.059-0.008,0.125-0.067,0.147
				c-3.361,1.266-6.566,3.345-9.666,5.354l-0.961,0.622c-11.511,7.429-21.371,17.145-28.517,28.096
				c-1.672,2.563-3.217,5.175-4.723,7.984l-0.251,0.464c-0.813,1.506-1.654,3.063-2.04,4.726
				C644.5,345.517,644.453,345.553,644.4,345.553z"/>
		</g>
		<g>
			<path style="fill:#2D965F;" d="M618.499,292.995c-4.198,0-8.1-2.955-9.654-4.298c-0.489-0.424-1.061-0.772-1.613-1.109
				c-0.648-0.396-1.319-0.806-1.879-1.345c-0.594-0.57-1.182-1.213-1.751-1.833c-0.827-0.903-1.684-1.837-2.58-2.579l0,0
				c-1.144-0.951-1.033-3.022-0.951-4.534c0.008-0.151,0.016-0.297,0.021-0.435c0.161-3.44,0.928-7.036,2.412-11.318
				c2.267-6.518,5.945-11.918,9.84-17.636c0.377-0.555,0.756-1.11,1.134-1.667l0.321-0.476c3.906-5.769,7.944-11.735,11.426-17.907
				c4.095-7.261,7.083-15.213,9.138-24.309c0.505-2.238,1.023-4.531,1.288-6.792c0.124-1.044,0.222-2.212,0.284-3.377l-0.001-0.023
				c-0.062-1.027,0.132-1.184,0.195-1.235c0.068-0.055,0.151-0.07,0.242-0.047c0.37,0.104,0.638,0.616,0.875,1.067
				c0.112,0.215,0.219,0.418,0.309,0.517c1.521,1.66,2.622,3.188,3.569,4.958c4.221,7.891,6.836,14.936,8.229,22.172
				c1.094,5.68,1.17,11.581,0.246,19.134c-2.09,17.06-6.528,29.945-13.57,39.39c-0.226,0.304-0.454,0.612-0.687,0.926
				c-3.946,5.323-8.857,11.949-15.92,12.707C619.114,292.979,618.806,292.995,618.499,292.995z M601.168,281.653
				c0.909,0.753,1.77,1.692,2.603,2.602c0.566,0.618,1.152,1.257,1.741,1.822c0.541,0.523,1.201,0.925,1.839,1.315
				c0.56,0.342,1.14,0.696,1.643,1.132c1.646,1.421,5.965,4.672,10.402,4.194c6.963-0.747,11.841-7.328,15.761-12.615
				c0.231-0.313,0.461-0.623,0.688-0.926c7.017-9.413,11.44-22.262,13.525-39.282c0.921-7.527,0.846-13.406-0.244-19.062
				c-1.389-7.212-3.996-14.237-8.206-22.107c-0.938-1.752-2.028-3.266-3.536-4.911c-0.109-0.12-0.218-0.326-0.343-0.565
				c-0.204-0.39-0.459-0.876-0.733-0.953c-0.023-0.006-0.029-0.001-0.035,0.004c-0.027,0.022-0.162,0.177-0.11,1.042
				c0.002,0.04,0.003,0.046,0.001,0.059c-0.063,1.16-0.161,2.333-0.285,3.382c-0.268,2.272-0.786,4.572-1.287,6.795
				c-2.065,9.138-5.062,17.11-9.166,24.392c-3.486,6.18-7.528,12.149-11.436,17.922l-0.321,0.476
				c-0.378,0.558-0.757,1.113-1.135,1.668c-3.886,5.705-7.556,11.093-9.813,17.582c-1.477,4.26-2.239,7.835-2.398,11.252
				c-0.007,0.139-0.015,0.285-0.023,0.436C600.221,278.772,600.113,280.777,601.168,281.653L601.168,281.653z"/>
			<path style="fill:#2D965F;" d="M607.155,287.472c-0.009,0-0.017-0.001-0.025-0.002c-0.063-0.007-0.108-0.064-0.102-0.127
				c0.007-0.063,0.069-0.113,0.127-0.102c0.077-0.037,0.208-0.45,0.251-0.586c0.021-0.07,0.041-0.131,0.057-0.171
				c0.247-0.658,0.563-1.289,0.867-1.898c0.153-0.307,0.307-0.614,0.453-0.928c1.706-3.651,4.12-7.04,6.869-10.774
				c9.975-13.543,20.8-29.575,22.996-48.477c0.007-0.063,0.049-0.108,0.128-0.101c0.063,0.007,0.107,0.064,0.101,0.127
				c-2.202,18.958-13.047,35.02-23.039,48.587c-2.741,3.725-5.148,7.102-6.846,10.735c-0.147,0.314-0.303,0.624-0.456,0.933
				c-0.303,0.604-0.615,1.23-0.858,1.877c-0.015,0.038-0.032,0.095-0.053,0.159C607.492,287.147,607.371,287.472,607.155,287.472z"
				/>
		</g>
		<g>
			<path style="fill:#FF9536;" d="M560.263,255.223c-1.728-2.008-2.307-4.588-3.085-7.037c-2.852-9.008,0.885-19.202,5.385-27.041
				c1.893-3.296,4.347-6.137,6.607-9.171c2.22-2.984,4.533-5.906,6.91-8.767c2.823-3.393,5.865-6.546,8.51-10.099
				c3.8-5.104,6.753-10.482,9.58-16.174c4.955-9.972,6.943-19.996,9.065-30.832c0.622-3.18,0.765-6.277,0.898-9.501
				c0.063-1.489,0.065-3.007-0.02-4.491c-0.02-0.337,0.057-1.227,0.28-0.974c1.08,1.225,1.647,3.225,2.465,4.617
				c3.963,6.743,6.5,14.264,8.3,21.866c1.3,5.492,2.593,11.311,3.235,16.922c0.29,2.516,0.145,5.14,0.265,7.674
				c0.298,6.339,0.548,12.823-0.865,19.061c-2.695,11.914-10.592,22.169-17.375,32.019c-3.865,5.614-6.245,12.458-7.777,19.07
				c-0.725,3.132-0.543,8.967-2.638,11.32c-0.755,0.848-2.378,1.19-3.422,1.438c-1.185,0.283-2.328,0.295-3.538,0.193
				c-1.573-0.133-3.08-0.457-4.565-1.003c-2.992-1.098-5.965-2.047-8.907-3.313c-2.25-0.965-4.435-2.275-6.438-3.652
				C562.128,256.652,561.078,256.168,560.263,255.223z"/>
			<path d="M572.317,262.056c-0.043,0-0.084-0.024-0.103-0.065c-1.036-2.181-0.785-5.123-0.565-7.719
				c0.05-0.58,0.096-1.128,0.125-1.641c0.473-8.167,2.985-16.666,6.896-23.316c3.668-6.242,7.891-12.229,11.975-18.018
				c1.425-2.02,2.899-4.108,4.328-6.18c0.513-0.743,1.036-1.483,1.561-2.225c1.823-2.579,3.709-5.245,5.166-8.074
				c4.408-8.561,6.834-17.964,7.015-27.193c0.002-0.063,0.053-0.113,0.115-0.113c0.001,0,0.002,0,0.002,0
				c0.064,0.001,0.114,0.054,0.113,0.117c-0.182,9.264-2.616,18.702-7.04,27.294c-1.465,2.843-3.355,5.516-5.184,8.101
				c-0.524,0.741-1.047,1.481-1.56,2.223c-1.431,2.072-2.904,4.161-4.329,6.182c-4.081,5.786-8.302,11.768-11.964,18.002
				c-3.892,6.62-6.394,15.081-6.864,23.213c-0.03,0.516-0.077,1.064-0.126,1.646c-0.219,2.566-0.467,5.476,0.542,7.6
				c0.027,0.058,0.003,0.126-0.054,0.153C572.351,262.052,572.334,262.056,572.317,262.056z"/>
		</g>
		<path style="fill:#52BA86;" d="M671.735,355.748c-1.27-11.853-2.655-26.34-13.42-33.875c-7.557-5.29-18.64-8.693-23.727-17.018
			c-3.458-5.66-4.632-11.945-6.545-18.165c-2.462-8.005-6.342-16.112-12.927-21.6c-12.905-10.755-32.813-10.86-47.948-17.346
			c-10.857-4.654-16.782-11.855-26.182-17.837c-3.66-2.329-7.763-3.566-11.78-5.073c-1.283-0.48-1.89-0.986-3.275-1.309
			c-5.44-1.27-11.405-2.361-17.017-2.128c-9.038,0.377-17.498,1.877-26.02,5.073c-22.518,8.444-39.243,29.042-50.563,49.419
			c-4.425,7.962-9.388,15.402-15.383,22.255c-5.185,5.928-11.453,10.825-16.855,16.527c-7.358,7.767-13.62,17.458-17.02,27.655
			c-1.938,5.813-3.413,11.65-4.418,17.672c-0.203,1.224-0.518,3.087-0.324,4.669h294.274
			C672.795,361.723,672.014,358.349,671.735,355.748z"/>
		<g>
			<path style="fill:#52BA86;" d="M300.346,300.468H200.257c-5.423,0-9.819-4.396-9.819-9.819V155.183
				c0-5.423,4.396-9.819,9.819-9.819h100.089c5.423,0,9.819,4.396,9.819,9.819v135.466
				C310.165,296.072,305.769,300.468,300.346,300.468z"/>
			<path style="fill:#FFFFFF;" d="M282.385,287.041h-64.168c-5.732,0-10.378-4.646-10.378-10.378l0,0
				c0-5.732,4.646-10.378,10.378-10.378h64.168c5.732,0,10.378,4.646,10.378,10.378l0,0
				C292.763,282.395,288.117,287.041,282.385,287.041z"/>
			<g>
				
					<ellipse transform="matrix(0.1581 -0.9874 0.9874 0.1581 3.903 423.5072)" style="fill:#FFD45A;" cx="250.301" cy="209.465" rx="42.74" ry="42.74"/>
				<path style="fill:#FF9536;" d="M250.301,166.725v42.74h42.74C293.041,185.86,273.906,166.725,250.301,166.725z"/>
			</g>
		</g>
		<g>
			<path style="fill:#FFD45A;" d="M584.329,151.855H450.297c-4.686,0-8.485-3.799-8.485-8.485V51.929
				c0-4.686,3.799-8.485,8.485-8.485h134.031c4.686,0,8.485,3.799,8.485,8.485v91.441
				C592.814,148.056,589.015,151.855,584.329,151.855z"/>
			<path style="fill:#FF9536;" d="M549.397,139.831h-64.168c-5.732,0-10.378-4.646-10.378-10.378l0,0
				c0-5.732,4.646-10.378,10.378-10.378h64.168c5.732,0,10.378,4.646,10.378,10.378l0,0
				C559.776,135.184,555.129,139.831,549.397,139.831z"/>
			<path style="fill:#F7EBD0;" d="M567.493,108.483H467.134c-3.966,0-7.181-3.215-7.181-7.181V67.575
				c0-3.966,3.215-7.181,7.181-7.181h100.359c3.966,0,7.181,3.215,7.181,7.181v33.727
				C574.674,105.268,571.459,108.483,567.493,108.483z"/>
		</g>
		<g>
			<path style="fill:#FF9536;" d="M455.53,364.669H315.511c-8.338,0-15.098-6.76-15.098-15.098V98.365
				c0-8.338,6.76-15.098,15.098-15.098H455.53c8.338,0,15.098,6.76,15.098,15.098v251.206
				C470.628,357.909,463.868,364.669,455.53,364.669z"/>
			<path style="fill:#FFFFFF;" d="M392.333,349.569c0,3.763-3.05,6.813-6.813,6.813c-3.763,0-6.813-3.05-6.813-6.813
				c0-3.763,3.05-6.813,6.813-6.813C389.283,342.756,392.333,345.807,392.333,349.569z"/>
			<rect x="313.732" y="102.938" style="fill:#FFFFFF;" width="143.575" height="231.532"/>
			<g>
				<path style="fill:#FFFFFF;" d="M395.983,95.449h-31.958c-0.758,0-1.372-0.614-1.372-1.372l0,0c0-0.758,0.614-1.372,1.372-1.372
					h31.958c0.758,0,1.372,0.614,1.372,1.372l0,0C397.355,94.835,396.741,95.449,395.983,95.449z"/>
				<path style="fill:#FFFFFF;" d="M407.015,95.449h-5.389c-0.758,0-1.372-0.614-1.372-1.372l0,0c0-0.758,0.614-1.372,1.372-1.372
					h5.389c0.758,0,1.372,0.614,1.372,1.372l0,0C408.387,94.835,407.773,95.449,407.015,95.449z"/>
			</g>
			<g>
				<rect x="313.732" y="102.938" style="fill:#FFD45A;" width="143.575" height="20.415"/>
				<path style="fill:#52BA86;" d="M434.031,113.145c0,2.042-1.655,3.698-3.698,3.698c-2.042,0-3.698-1.655-3.698-3.698
					c0-2.042,1.656-3.698,3.698-3.698C432.376,109.447,434.031,111.103,434.031,113.145z"/>
				<circle style="fill:#52BA86;" cx="418.501" cy="113.145" r="3.698"/>
				<circle style="fill:#52BA86;" cx="406.669" cy="113.145" r="3.698"/>
				<g>
					<rect x="438.803" y="109.447" style="fill:#FFFFFF;" width="12.776" height="7.395"/>
					<rect x="443.912" y="110.631" style="fill:#52BA86;" width="6.512" height="5.028"/>
				</g>
			</g>
			<g>
				<path style="fill:#F7EBD0;" d="M438.679,193.369H332.361c-3.718,0-6.731-3.014-6.731-6.732v-39.827
					c0-3.718,3.014-6.732,6.731-6.732h106.317c3.718,0,6.732,3.014,6.732,6.732v39.827
					C445.41,190.356,442.397,193.369,438.679,193.369z"/>
				<path style="fill:#F7EBD0;" d="M438.679,281.925H332.361c-3.718,0-6.731-3.014-6.731-6.732v-4.768
					c0-3.718,3.014-6.732,6.731-6.732h106.317c3.718,0,6.732,3.014,6.732,6.732v4.768
					C445.41,278.911,442.397,281.925,438.679,281.925z"/>
				<path style="fill:#FFD45A;" d="M417.604,315.256h-64.168c-5.732,0-10.378-4.646-10.378-10.378l0,0
					c0-5.732,4.646-10.378,10.378-10.378h64.168c5.732,0,10.378,4.646,10.378,10.378l0,0
					C427.982,310.609,423.336,315.256,417.604,315.256z"/>
				<g>
					<rect x="332.238" y="212.13" width="106.565" height="0.23"/>
					<rect x="332.238" y="222.987" width="106.565" height="0.23"/>
					<rect x="332.238" y="233.845" width="106.565" height="0.23"/>
					<rect x="332.238" y="244.703" width="106.565" height="0.23"/>
				</g>
			</g>
		</g>
		<path style="fill:#2D965F;" d="M302.366,97.008V72.231c0-3.743-3.034-6.777-6.777-6.777h-57.254c-3.743,0-6.777,3.034-6.777,6.777
			v34.137c0,3.743,3.034,6.777,6.777,6.777h35.007h22.247h28.583L302.366,97.008z"/>
		<g>
			<path style="fill:#F7EBD0;" d="M474.46,296.933v-24.777c0-3.743,3.034-6.777,6.777-6.777h118.485
				c3.743,0,6.777,3.034,6.777,6.777v34.137c0,3.743-3.034,6.777-6.777,6.777h-96.238h-22.248h-28.582L474.46,296.933z"/>
			<g>
				<rect x="487.295" y="278.251" width="106.565" height="0.23"/>
				<rect x="487.295" y="289.109" width="106.565" height="0.23"/>
				<rect x="487.295" y="299.967" width="106.565" height="0.23"/>
			</g>
		</g>
		<path style="fill:#2D965F;" d="M640.66,353.403c-2.501-7.305-5.086-15.029-9.101-21.445
			c-10.224-16.332-26.229-26.633-43.971-23.523c-11.172,1.959-21.671,8.352-30.894,15.666c-4.772,3.786-8.848,8.835-13.695,12.456
			c-4.849,3.622-10.189,4.742-15.539,6.891c-4.049,1.628-7.779,3.851-11.29,6.708c-4.556,3.708-8.391,8.707-10.799,14.513h138.914
			C643.224,360.851,641.939,357.136,640.66,353.403z"/>
		<path style="fill:#2D965F;" d="M358.897,357.578c-6.662-5.183-15.415-6.81-21.967-12.205
			c-11.255-9.268-16.713-22.748-30.92-27.665c-13.633-4.717-29.688-1.025-40.683,8.138c-4.822,4.017-8.715,9.707-14.24,12.815
			c-5.626,3.165-12.248,3.908-18.104,6.51c-5.31,2.36-10.46,6.213-14.036,10.78c-1.84,2.351-3.582,5.477-4.805,8.719H364.79
			C363.283,361.982,361.454,359.565,358.897,357.578z"/>
		<path style="fill:#FF9536;" d="M185.369,144.25H85.9c-0.063,0-0.115-0.051-0.115-0.114c-0.002-0.222,0.003-0.438,0.009-0.639l0,0
			c0.1-4.328,0.84-8.602,2.031-11.728c1.549-4.065,4.193-8.047,8.323-12.532c1.853-2.012,3.903-4.1,6.343-5.743
			c4.659-3.134,11.21-4.419,17.524-3.437c6.218,0.967,11.781,4.043,17.162,7.019c4.32,2.389,8.787,4.858,13.555,6.211
			c2.572,0.73,5.252,1.211,7.844,1.676c2.995,0.537,6.092,1.093,9.052,2.037c4.266,1.36,8.165,3.559,11.276,6.357
			c3.454,3.106,5.729,6.824,6.578,10.752c0.007,0.034-0.001,0.069-0.023,0.097C185.437,144.234,185.404,144.25,185.369,144.25z
			 M86.015,144.02h99.211c-1.322-5.843-6.642-13.282-17.669-16.799c-2.945-0.939-6.034-1.493-9.022-2.029
			c-2.598-0.466-5.283-0.948-7.866-1.681c-4.794-1.36-9.272-3.837-13.604-6.232c-5.363-2.965-10.909-6.032-17.086-6.992
			c-6.261-0.975-12.748,0.297-17.36,3.399c-2.42,1.629-4.459,3.707-6.303,5.708c-4.109,4.462-6.739,8.421-8.277,12.458
			c-1.182,3.102-1.917,7.349-2.016,11.651c0,0.001,0,0.001,0,0.001C86.019,143.667,86.015,143.84,86.015,144.02z M85.908,143.5
			h0.003H85.908z"/>
		<g style="opacity:0.3;">
			<ellipse style="fill:#2D965F;" cx="293.088" cy="408.431" rx="15.376" ry="4.37"/>
			<path style="fill:#2D965F;" d="M333.562,395.543c0,2.576-5.619,4.664-12.549,4.664c-6.931,0-12.549-2.088-12.549-4.664
				s5.618-4.664,12.549-4.664C327.944,390.879,333.562,392.968,333.562,395.543z"/>
			<ellipse style="fill:#2D965F;" cx="491.913" cy="399.913" rx="13.458" ry="4.37"/>
			<path style="fill:#2D965F;" d="M164.594,380.158c0,3.04-9.741,5.504-21.757,5.504s-21.757-2.464-21.757-5.504
				c0-3.04,9.741-5.504,21.757-5.504S164.594,377.118,164.594,380.158z"/>
		</g>
		
			<ellipse transform="matrix(0.2306 -0.9731 0.9731 0.2306 105.9655 248.7057)" style="fill:#FFD45A;" cx="210.242" cy="57.35" rx="8.104" ry="8.104"/>
		<path style="fill:#2D965F;" d="M644.82,171.586c-6.907,0-12.526-5.619-12.526-12.526c0-6.907,5.619-12.526,12.526-12.526
			c6.906,0,12.525,5.62,12.525,12.526C657.346,165.967,651.727,171.586,644.82,171.586z M644.82,146.765
			c-6.78,0-12.296,5.516-12.296,12.296c0,6.78,5.516,12.296,12.296,12.296c6.779,0,12.295-5.516,12.295-12.296
			C657.115,152.28,651.6,146.765,644.82,146.765z"/>
		<path style="fill:#FF9536;" d="M103.833,211.353c-4.232,0-7.675-3.443-7.675-7.675c0-4.232,3.443-7.675,7.675-7.675
			c4.232,0,7.675,3.443,7.675,7.675C111.509,207.91,108.065,211.353,103.833,211.353z M103.833,196.233
			c-4.105,0-7.445,3.34-7.445,7.445c0,4.105,3.34,7.445,7.445,7.445c4.105,0,7.445-3.34,7.445-7.445
			C111.278,199.573,107.938,196.233,103.833,196.233z"/>
	</g>
	<g>
		<path style="fill:#4F342F;" d="M534.107,188.946c0,0-6.732-0.512-6.88-6.064c-0.148-5.553,5.252-7.014,5.252-7.014
			s-2.219-4.822,1.184-7.745c3.403-2.923,8.197,0.512,8.197,0.512s2.333-6.064,8.349-5.188c6.016,0.877,6.46,5.772,6.46,5.772
			s3.551-3.069,8.433-1.681c4.882,1.388,2.663,7.818,2.663,7.818s5.844-1.169,7.397,3.288c1.553,4.457-3.329,6.552-3.329,6.552
			s3.921,1.266,3.699,5.212c-0.222,3.945-6.214,4.405-6.214,4.405s4.438,1.448,4.364,5.645c-0.074,4.197-6.886,3.289-6.886,3.289
			s1.621,3.027,0,4.854c-1.621,1.827-6.207-0.95-6.207-0.95s1.182,3.451-1.178,4.557c-2.36,1.106-5.339-2.795-5.339-2.795
			L534.107,188.946z"/>
		<g>
			<path style="fill:#CC7646;" d="M520.799,238.228c0,0,4.202-10.306,7.258-15.61c3.058-5.304,10.195-6.96,12.391-7.272
				c0,0,3.565,4.637-2.677,13.715c-6.2,9.014-12.336,22.197-17.701,21.198c-5.365-0.998-17.387-21.784-19.196-25.777
				c0,0-6.024,0.039-10.709-4.479c-4.375-4.222-7.157-7.517-5.1-9.926c1.26-1.474,11.106,0.312,14.976,4.804
				c0,0-0.626-5.865,0.997-6.676c1.622-0.811,4.38,8.792,4.007,13.909C505.045,222.114,517.554,231.802,520.799,238.228z"/>
			<g>
				<path d="M494.462,214.27c0.038,0,0.074-0.02,0.094-0.055c0.029-0.052,0.011-0.117-0.041-0.146c-1.944-1.1-5.14-2.598-8.997-4.22
					l-0.118-0.05c-0.055-0.023-0.118,0.003-0.141,0.057c-0.023,0.055,0.003,0.118,0.057,0.141l0.118,0.049
					c3.85,1.618,7.037,3.113,8.975,4.208C494.426,214.266,494.444,214.27,494.462,214.27z"/>
				<path d="M493.404,216.143c0.038,0,0.075-0.02,0.095-0.056c0.028-0.052,0.009-0.117-0.043-0.146
					c-0.059-0.032-5.944-3.249-9.007-4.693c-0.054-0.026-0.118-0.002-0.143,0.051c-0.025,0.054-0.002,0.118,0.051,0.143
					c3.057,1.442,8.936,4.655,8.995,4.687C493.368,216.139,493.386,216.143,493.404,216.143z"/>
				<path d="M492.64,217.956c0.04,0,0.078-0.022,0.097-0.06c0.026-0.053,0.004-0.118-0.049-0.144
					c-0.405-0.198-1.21-0.679-2.063-1.189c-0.771-0.46-1.568-0.937-2.113-1.229c-0.598-0.32-3.832-2.306-3.865-2.326
					c-0.051-0.031-0.117-0.015-0.148,0.035c-0.031,0.05-0.015,0.117,0.035,0.148c0.133,0.082,3.272,2.01,3.876,2.333
					c0.541,0.29,1.335,0.765,2.104,1.224c0.857,0.512,1.667,0.996,2.079,1.198C492.608,217.953,492.624,217.956,492.64,217.956z"/>
				<path d="M492.491,218.446c0.046,0,0.088-0.029,0.102-0.075c0.492-1.551,1.22-2.995,2.164-4.292
					c0.035-0.048,0.024-0.115-0.024-0.15c-0.048-0.035-0.115-0.024-0.15,0.024c-0.958,1.316-1.697,2.781-2.195,4.354
					c-0.018,0.057,0.013,0.117,0.07,0.135C492.469,218.444,492.48,218.446,492.491,218.446z"/>
			</g>
			<path style="fill:#FFD45A;" d="M528.057,222.618c-3.056,5.304-7.258,15.61-7.258,15.61c-1.129-2.236-3.381-4.868-5.836-7.348
				c-1.154,2.314-3.168,5.301-6.335,6.844c4.029,6.102,8.642,12.015,11.442,12.536c5.365,0.998,11.501-12.185,17.701-21.198
				c6.241-9.078,2.677-13.715,2.677-13.715C538.252,215.659,531.115,217.315,528.057,222.618z"/>
		</g>
		<path style="fill:#2F748C;" d="M565.774,362.54c0,0,3.057-78.013,2.548-100.535c-17.832,2.622-30.025-0.235-33.58-1.255
			c-2.531,25.311-7.362,99.045-7.362,99.045s2.778,3.716,10.467,1.513c7.786-38.33,7.026-49.47,7.026-49.47l3.97-31.113l1.664-0.031
			l1.775,32.058c-2.145,15.41,1.361,38.513,2.85,49.742C557.113,363.453,561.942,365.269,565.774,362.54z"/>
		<g>
			<path style="fill:#FFD45A;" d="M527.379,359.795c0,0-19.706,14.084-18.053,19.082c1.655,4.999,27.029-10.494,27.029-10.494
				c0.536-2.457,1.031-4.811,1.491-7.075C530.157,363.511,527.379,359.795,527.379,359.795z"/>
			<path style="fill:#F8F8F8;" d="M515.748,369.259c-3.91,3.659-7.131,7.474-6.422,9.618c1.655,4.999,27.029-10.494,27.029-10.494
				c0.188-0.86,0.369-1.704,0.547-2.539c-5.354,2.946-10.755,5.808-16.206,8.573C519.844,372.116,517.98,370.267,515.748,369.259z"
				/>
		</g>
		<g>
			<path style="fill:#FFD45A;" d="M582.867,376.805c-1.157-6.509-17.093-14.265-17.093-14.265c-3.832,2.73-8.661,0.914-10.644-0.044
				c0.542,4.085,0.949,6.599,0.949,6.599C559.278,372.735,584.024,383.316,582.867,376.805z"/>
			<path style="fill:#F8F8F8;" d="M582.867,376.805c-0.547-3.078-4.4-6.435-8.309-9.119c-0.031,0.029-0.064,0.056-0.095,0.085
				c-1.82,1.705-3.027,3.955-4.077,6.217c-5.016-2.087-9.908-4.471-14.648-7.128c0.211,1.433,0.341,2.235,0.341,2.235
				C559.278,372.735,584.024,383.316,582.867,376.805z"/>
		</g>
		<g>
			<path style="fill:#2F748C;" d="M533.832,356.43c-2.22-0.201-4.142-0.664-6.119-1.668l-0.333,5.034c0,0,2.778,3.716,10.467,1.513
				c0.362-1.781,0.701-3.503,1.018-5.168C537.242,356.531,535.494,356.58,533.832,356.43z"/>
			<path style="fill:#2F748C;" d="M560.3,357.866c-1.988,0.009-4.132-0.273-5.936-1.058c0,0,0.547,4.03,0.767,5.688
				c1.983,0.958,6.811,2.774,10.644,0.044l0.212-5.569C564.131,357.6,562.261,357.857,560.3,357.866z"/>
		</g>
		<g>
			<path d="M552.277,280.833c-0.019,0-0.038-0.005-0.055-0.015c-0.057-0.034-0.253-0.018-0.359-0.009
				c-0.059,0.005-0.111,0.009-0.15,0.009c-0.437-0.004-0.877-0.015-1.31-0.033c-1.24-0.048-2.499-0.022-3.717,0.003
				c-0.738,0.015-1.502,0.029-2.253,0.03c-0.059,0-0.107-0.048-0.107-0.108c0-0.059,0.048-0.107,0.108-0.107h0
				c0.749-0.003,1.511-0.015,2.248-0.03c1.221-0.025,2.483-0.051,3.73-0.003c0.431,0.017,0.87,0.029,1.303,0.033
				c0.033,0,0.08-0.004,0.132-0.008c0.209-0.017,0.379-0.025,0.486,0.039c0.051,0.03,0.068,0.096,0.038,0.147
				C552.35,280.815,552.314,280.833,552.277,280.833z"/>
			<path d="M547.63,280.715c-0.042,0-0.082-0.025-0.099-0.066c-0.406-0.959-0.465-2.1-0.522-3.204
				c-0.018-0.352-0.036-0.684-0.064-1.004c-0.305-3.438-0.148-7.072,0.464-10.801c0.157-0.958,0.403-1.921,0.641-2.852
				c0.264-1.03,0.536-2.095,0.685-3.147c0.008-0.059,0.064-0.101,0.121-0.091c0.059,0.008,0.1,0.063,0.091,0.121
				c-0.15,1.064-0.424,2.135-0.689,3.171c-0.237,0.927-0.482,1.885-0.637,2.833c-0.61,3.711-0.765,7.327-0.462,10.747
				c0.029,0.324,0.046,0.659,0.064,1.012c0.056,1.085,0.114,2.207,0.505,3.131c0.023,0.055-0.002,0.118-0.057,0.141
				C547.658,280.712,547.644,280.715,547.63,280.715z"/>
			<path d="M549.919,280.649c-0.048,0-0.092-0.032-0.104-0.081c-0.383-1.499-0.407-3.122-0.429-4.691
				c-0.004-0.296-0.009-0.589-0.015-0.878c-0.095-4.189,0.211-8.001,0.909-11.33c0.097-0.462,0.157-0.971,0.22-1.511
				c0.125-1.06,0.253-2.157,0.684-3.021c0.026-0.053,0.091-0.075,0.144-0.048c0.053,0.026,0.075,0.091,0.048,0.144
				c-0.414,0.831-0.541,1.908-0.663,2.95c-0.064,0.544-0.124,1.059-0.223,1.53c-0.694,3.313-0.998,7.109-0.904,11.281
				c0.007,0.29,0.011,0.584,0.015,0.88c0.023,1.557,0.046,3.166,0.423,4.641c0.015,0.058-0.02,0.116-0.078,0.131
				C549.937,280.648,549.928,280.649,549.919,280.649z"/>
		</g>
		<path style="fill:#FFD45A;" d="M568.358,265.891c0.004-3.472-0.069-6.191-0.242-7.894c-1.483-14.67,2.027-34.968-0.467-39.378
			c-2.371-4.194-16.972-4.076-16.972-4.076s-8.755-0.205-13.791,1.799c-1.398,0.557-2.511,1.285-3.067,2.234
			c-3.126,5.328,3.386,26.825,1.572,37.151c-0.428,2.436-0.795,6.074-1.111,10.549C538.211,269.824,551.221,279.118,568.358,265.891
			z"/>
		<path style="fill:#CC7646;" d="M549.21,219.735c4.384,0.398,7.704-2.477,9.403-4.683c-4.074-0.54-7.936-0.509-7.936-0.509
			s-2.971-0.069-6.445,0.269C544.404,216.391,545.255,219.376,549.21,219.735z"/>
		<g>
			<g>
				<defs>
					<path id="XMLID_16_" d="M545.886,210.827c0,0-8.36-0.57-10.499-8.222c-2.327-8.315-2.209-20.966,3.76-26.478
						c5.965-5.512,26.68-6.724,29.044,8.38c2.143,13.666-3.059,22.362-12.624,26.508v4.459c0,0-3.696,5.34-9.755,0.739
						L545.886,210.827z"/>
				</defs>
				<use xlink:href="#XMLID_16_"  style="overflow:visible;fill:#CC7646;"/>
				<clipPath id="XMLID_00000033330558601542687510000000105493547083849094_">
					<use xlink:href="#XMLID_16_"  style="overflow:visible;"/>
				</clipPath>
				<path style="clip-path:url(#XMLID_00000033330558601542687510000000105493547083849094_);fill:#C65C40;" d="M558.816,200.589
					c0,2.638-2.138,4.776-4.775,4.776c-2.638,0-4.776-2.138-4.776-4.776c0-2.637,2.138-4.775,4.776-4.775
					C556.678,195.813,558.816,197.951,558.816,200.589z"/>
				<path style="clip-path:url(#XMLID_00000033330558601542687510000000105493547083849094_);fill:#C65C40;" d="M540.467,200.112
					c0,2.637-2.138,4.776-4.776,4.776s-4.776-2.138-4.776-4.776c0-2.637,2.138-4.775,4.776-4.775S540.467,197.474,540.467,200.112z"
					/>
			</g>
			<g>
				<path d="M542.031,201.749c-0.021,0-0.043-0.006-0.061-0.019c-0.166-0.115-0.299-0.331-0.417-0.52
					c-0.039-0.064-0.077-0.124-0.112-0.176c-0.28-0.399-0.711-1.218-0.552-1.756c0.05-0.163,0.317-0.298,0.689-0.471
					c0.098-0.045,0.19-0.088,0.225-0.112c0.48-0.326,1.147-0.857,1.594-1.538c0.797-1.207,1.198-2.891,1.1-4.621
					c-0.109-1.937-1.015-3.868-2.366-5.037c-0.982-0.85-2.145-1.244-3.365-1.138c-0.63,0.055-1.156,0.157-1.674,0.479
					c-0.05,0.031-0.117,0.016-0.148-0.035c-0.031-0.05-0.016-0.117,0.035-0.148c0.587-0.364,1.197-0.46,1.77-0.51
					c1.279-0.112,2.498,0.3,3.524,1.189c1.393,1.207,2.327,3.195,2.44,5.188c0.101,1.775-0.313,3.507-1.135,4.752
					c-0.466,0.709-1.156,1.26-1.653,1.597c-0.049,0.033-0.14,0.076-0.255,0.129c-0.162,0.076-0.542,0.252-0.574,0.339
					c-0.136,0.458,0.282,1.228,0.522,1.57c0.038,0.055,0.077,0.118,0.119,0.185c0.107,0.172,0.228,0.367,0.357,0.457
					c0.049,0.034,0.061,0.101,0.027,0.15C542.098,201.733,542.065,201.749,542.031,201.749z"/>
				<path d="M547.589,188.186c-0.027,0-0.054-0.01-0.074-0.03c-0.043-0.041-0.044-0.109-0.003-0.152
					c1.768-1.846,4.258-2.496,6.659-1.738c0.58,0.183,1.01,0.536,1.426,0.877c0.224,0.183,0.455,0.373,0.706,0.533
					c0.05,0.032,0.065,0.098,0.033,0.148c-0.032,0.05-0.098,0.065-0.148,0.033c-0.262-0.167-0.498-0.361-0.727-0.548
					c-0.418-0.343-0.813-0.667-1.354-0.838c-2.322-0.732-4.729-0.104-6.439,1.682C547.645,188.175,547.617,188.186,547.589,188.186z
					"/>
				<g>
					<defs>
						<path id="XMLID_7_" d="M555.169,194.649c0.942-2.299,0.161-4.741-1.746-5.456c-1.905-0.714-4.216,0.57-5.158,2.869
							c-0.942,2.299-0.161,4.741,1.746,5.456C551.916,198.232,554.227,196.948,555.169,194.649z"/>
					</defs>
					<use xlink:href="#XMLID_7_"  style="overflow:visible;fill:#FFFFFF;"/>
					<clipPath id="XMLID_00000122707301708335728710000008258935705338731440_">
						<use xlink:href="#XMLID_7_"  style="overflow:visible;"/>
					</clipPath>
					<path style="clip-path:url(#XMLID_00000122707301708335728710000008258935705338731440_);fill:#3D2D27;" d="M552.994,194.05
						c-0.038,2.043-1.515,3.673-3.299,3.64c-1.784-0.033-3.201-1.716-3.163-3.759s1.515-3.672,3.299-3.64
						C551.616,190.325,553.032,192.008,552.994,194.05z"/>
				</g>
				<g>
					<defs>
						<path id="XMLID_5_" d="M536.125,193.122c-0.245-2.471,1.11-4.598,3.024-4.752c1.915-0.154,3.665,1.724,3.908,4.195
							c0.245,2.47-1.109,4.598-3.024,4.752C538.118,197.471,536.368,195.593,536.125,193.122z"/>
					</defs>
					<use xlink:href="#XMLID_5_"  style="overflow:visible;fill:#FFFFFF;"/>
					<clipPath id="XMLID_00000054267920510040904780000013528376243597973417_">
						<use xlink:href="#XMLID_5_"  style="overflow:visible;"/>
					</clipPath>
					<path style="clip-path:url(#XMLID_00000054267920510040904780000013528376243597973417_);fill:#3D2D27;" d="M541.466,193.954
						c-0.038,2.043-1.515,3.673-3.299,3.64s-3.201-1.716-3.163-3.759c0.037-2.043,1.515-3.673,3.299-3.64
						C540.088,190.228,541.504,191.911,541.466,193.954z"/>
				</g>
				<path d="M546.371,205.152c0.813,0,1.932-0.303,2.625-0.984c0.042-0.042,0.043-0.11,0.001-0.152
					c-0.042-0.042-0.11-0.043-0.152-0.001c-0.554,0.545-1.568,0.923-2.472,0.923c-0.008,0-0.017-0.001-0.025,0
					c-0.059,0-0.107,0.048-0.108,0.107c0,0.059,0.047,0.108,0.107,0.108C546.355,205.152,546.363,205.152,546.371,205.152z"/>
				<path d="M545.259,203.737c0.549,0,1.097-0.084,1.614-0.254c1.144-0.375,2.164-1.176,2.798-2.199
					c0.031-0.05,0.016-0.117-0.035-0.148c-0.05-0.031-0.117-0.016-0.148,0.035c-0.608,0.98-1.586,1.748-2.682,2.107
					c-1.096,0.359-2.339,0.319-3.409-0.111c-0.055-0.022-0.118,0.005-0.14,0.06c-0.022,0.055,0.005,0.118,0.06,0.14
					C543.928,203.613,544.594,203.737,545.259,203.737z"/>
			</g>
			<path d="M561.133,199.3c-0.059,0-0.107-0.048-0.107-0.107c0-2.358,1.437-5.6,3.575-6.667c0.053-0.027,0.118-0.005,0.144,0.048
				c0.027,0.053,0.005,0.118-0.048,0.144c-2.068,1.031-3.456,4.181-3.456,6.475C561.24,199.252,561.192,199.3,561.133,199.3z"/>
			<path style="fill:#4F342F;" d="M533.981,183.389c0,0,1.494-6.841,6.845-9.002c7.214-4.84,25.621-4.907,27.892,9.603
				c2.179,13.894-2.248,23.376-13.15,27.025c0,0,1.827-1.079,3.945-3.471c2.118-2.392,2.465-4.315,2.465-4.315
				c6.174-2.026,6.773-11.836,3.454-12.852c-3.315-1.016-5.207,3.87-5.207,3.87s-2.652-3.37-2.724-10.068
				c0,0-2.743,2.284-5.269,0.821c-2.526-1.463,0.585-5.12,0.585-5.12s-5.135,5.324-8.587,3.686
				c-3.452-1.638-0.982-5.733-0.982-5.733S539.599,183.034,533.981,183.389z"/>
		</g>
		<g>
			<g>
				<path style="fill:#CC7646;" d="M605.363,286.215c3.856,3.482,10.993,6.652,12.987,4.077c1.645-2.122-0.198-6.341-2.803-9.646
					c-1.983-2.518-5.444-4.06-5.444-4.06s7.173-0.373,4.566-2.647c-2.606-2.274-12.429-0.945-12.429-0.945
					c-4.971-16.712-15.962-26.464-15.962-26.464s-2.754-8.495-9.066-19.192c-6.415-10.874-13.558-11.238-13.558-11.238
					s-0.442,5.072,1.569,12.451c2.01,7.379,11.49,22.366,14.467,26.702c6.337,9.227,18.458,21.9,18.458,21.9
					S600.414,281.751,605.363,286.215z"/>
				<g>
					<path d="M618.854,287.227c0.022-0.004,0.044-0.015,0.061-0.033c0.04-0.044,0.037-0.112-0.007-0.152
						c-0.063-0.058-6.198-5.235-7.23-5.92c-0.006-0.016-0.015-0.03-0.028-0.042l-0.015,0.014c-0.054-0.034-0.09-0.049-0.099-0.046
						c-0.037,0.012-0.064,0.042-0.072,0.08c-0.008,0.038,0.013,0.086,0.042,0.112c0.01,0.009,0.02,0.016,0.032,0.02
						c0.413,0.309,5.58,4.434,7.226,5.941C618.789,287.224,618.822,287.233,618.854,287.227z"/>
					<path d="M618.426,290.254c0.023-0.004,0.044-0.015,0.061-0.033c0.04-0.044,0.037-0.112-0.007-0.152
						c-0.933-0.854-2.403-2.045-3.958-3.307c-1.629-1.321-3.313-2.687-4.385-3.674c-0.044-0.04-0.111-0.038-0.152,0.006
						c-0.04,0.044-0.037,0.112,0.006,0.152c1.077,0.993,2.764,2.361,4.395,3.684c1.553,1.259,3.02,2.449,3.949,3.299
						C618.36,290.251,618.394,290.26,618.426,290.254z"/>
					<path d="M616.367,291.306c0.028-0.005,0.053-0.02,0.07-0.045c0.034-0.049,0.021-0.116-0.028-0.15
						c-2.177-1.499-4.589-3.577-7.775-6.444c-0.044-0.04-0.112-0.036-0.152,0.008c-0.04,0.044-0.036,0.112,0.008,0.152
						c3.193,2.872,5.61,4.956,7.797,6.461C616.312,291.305,616.34,291.31,616.367,291.306z"/>
					<path d="M608.079,285.192c0.018-0.003,0.035-0.011,0.05-0.023c1.752-1.47,3.305-3.38,4.258-5.24
						c0.027-0.053,0.006-0.118-0.047-0.145c-0.053-0.027-0.117-0.006-0.145,0.047c-0.941,1.835-2.474,3.721-4.205,5.173
						c-0.045,0.038-0.051,0.106-0.013,0.151C608.003,285.186,608.042,285.198,608.079,285.192z"/>
				</g>
			</g>
			<path style="fill:#FFD45A;" d="M591.783,252.687c-3.083-4.008-5.505-6.157-5.505-6.157s-2.754-8.495-9.065-19.192
				c-6.415-10.873-13.558-11.237-13.558-11.237s-0.774,5.064,1.236,12.444c2.01,7.379,11.823,22.374,14.799,26.71
				c1.01,1.471,2.168,3.03,3.4,4.61C584.656,257.599,587.526,254.317,591.783,252.687z"/>
		</g>
	</g>
	<g>
		<path style="fill:#232228;" d="M198.556,190.046c0,0,5.443-1.546,5.155-9.499c-0.288-7.952-25.098-16.217-33.727-6.939
			c0,0-4.962-1.481-7.263,3.508c-2.301,4.99-8.956,59.181-0.307,64.491c0,0,2.608,1.645,6.707,1.879c0,0-2.569-1.637-3.19-5.302
			c0,0,4.125,7.251,18.364,6.003c0,0,7.335,2.452,12.153-2.321c0,0,0.096,1.103-0.663,2.83
			C195.785,244.697,215.532,233.603,198.556,190.046z"/>
		<g>
			<g>
				<path style="fill:#FFA05F;" d="M221.292,288.909c3.205,4.092,9.699,8.439,12.107,6.243c1.987-1.809,0.893-6.281-1.109-9.984
					c-1.524-2.821-4.672-4.933-4.672-4.933s7.137,0.863,4.957-1.824c-2.18-2.687-12.094-3.062-12.094-3.062
					c-5.354-10.617-13.453-23.279-13.453-23.279s-1.287-12.198-2.32-23.818c-0.998-9.332-9.097-10.924-9.097-10.924
					s-1.884,3.779-1.169,11.394c0.716,7.614,2.832,23.866,5.023,28.648c4.665,10.177,16.267,21.375,16.267,21.375
					S217.178,283.663,221.292,288.909z"/>
				<g>
					<path d="M234.423,292.22c0.023,0,0.046-0.007,0.066-0.022c0.047-0.036,0.056-0.104,0.019-0.151
						c-0.052-0.067-5.214-6.22-6.113-7.072c-0.003-0.016-0.01-0.032-0.021-0.046l-0.017,0.011c-0.048-0.043-0.081-0.064-0.09-0.063
						c-0.038,0.005-0.071,0.03-0.085,0.066c-0.014,0.036-0.002,0.087,0.022,0.117c0.008,0.01,0.018,0.019,0.028,0.025
						c0.354,0.375,4.741,5.325,6.105,7.091C234.359,292.206,234.391,292.22,234.423,292.22z"/>
					<path d="M233.481,295.129c0.023,0,0.046-0.007,0.066-0.022c0.047-0.036,0.056-0.104,0.019-0.151
						c-0.774-1.001-2.018-2.427-3.336-3.937c-1.379-1.58-2.806-3.215-3.693-4.372c-0.036-0.047-0.104-0.056-0.151-0.02
						c-0.047,0.036-0.056,0.104-0.02,0.151c0.892,1.163,2.32,2.8,3.702,4.383c1.315,1.507,2.557,2.931,3.327,3.927
						C233.417,295.114,233.449,295.129,233.481,295.129z"/>
					<path d="M231.27,295.811c0.028,0,0.056-0.011,0.077-0.032c0.041-0.042,0.041-0.11-0.002-0.152
						c-1.889-1.85-3.911-4.311-6.561-7.682c-0.037-0.047-0.104-0.055-0.151-0.018c-0.047,0.037-0.055,0.104-0.018,0.151
						c2.655,3.377,4.682,5.844,6.58,7.703C231.216,295.801,231.243,295.811,231.27,295.811z"/>
					<path d="M224.147,288.367c0.018,0,0.037-0.005,0.054-0.014c1.98-1.148,3.839-2.763,5.099-4.432
						c0.036-0.047,0.026-0.115-0.021-0.151c-0.047-0.036-0.115-0.026-0.151,0.021c-1.243,1.647-3.078,3.242-5.035,4.376
						c-0.051,0.03-0.069,0.095-0.039,0.147C224.073,288.348,224.109,288.367,224.147,288.367z"/>
				</g>
				<path style="fill:#FFFFFF;" d="M205.279,234.468c-0.192-2.042-0.385-4.138-0.57-6.217c-0.998-9.332-9.097-10.924-9.097-10.924
					s-1.884,3.779-1.169,11.394c0.179,1.907,0.446,4.355,0.78,7.029C197.384,234.878,200.93,233.926,205.279,234.468z"/>
			</g>
		</g>
		<path style="fill:#2F748C;" d="M195.37,361.554c0,0,11.033-78.03,2.714-103.826c-12.655,2.668-25.315,1.048-31.37-0.058
			c-2.508,5.043-4.991,12.618-5.174,23.016c-0.378,21.427,2.341,82.152,2.341,82.152s3.686,2.968,10.266,1.678
			c1.73-11.043,5.153-36.614,2.336-50.866l4.715-37.623l4.588,37.189c0,0-7.25,9.607,1.19,50.571
			C188.995,364.03,192.855,364.085,195.37,361.554z"/>
		<g>
			<path d="M189.48,276.168c-0.002,0-0.004,0-0.006,0c-2.767-0.14-5.749-0.178-9.383-0.122c-0.063,0.005-0.108-0.046-0.109-0.106
				c-0.001-0.059,0.046-0.108,0.106-0.109c3.639-0.056,6.625-0.018,9.397,0.122c0.059,0.003,0.105,0.053,0.102,0.113
				C189.584,276.123,189.537,276.168,189.48,276.168z"/>
			<path d="M180.984,275.922c-0.003,0-0.005,0-0.008,0c-0.059-0.004-0.104-0.055-0.1-0.115c0.167-2.46,0.09-5.012,0.016-7.48
				c-0.03-0.982-0.06-1.998-0.074-2.986c-0.037-2.625,0.006-5.297,0.048-7.881c0.048-2.942,0.098-5.983,0.028-8.966
				c-0.001-0.059,0.046-0.109,0.105-0.11c0.064,0.005,0.109,0.046,0.11,0.105c0.07,2.987,0.02,6.031-0.028,8.975
				c-0.042,2.582-0.086,5.253-0.048,7.875c0.014,0.987,0.045,2.002,0.074,2.983c0.075,2.473,0.152,5.03-0.016,7.501
				C181.087,275.878,181.04,275.922,180.984,275.922z"/>
			<path d="M183.569,275.935c-0.007,0-0.015-0.001-0.023-0.002c-0.058-0.012-0.095-0.069-0.083-0.128
				c0.196-0.924,0.2-1.971,0.204-2.983c0.001-0.397,0.003-0.788,0.016-1.166c0.062-1.769,0.07-3.567,0.078-5.305
				c0.006-1.323,0.013-2.69,0.042-4.036c0.021-0.949,0.03-1.916,0.038-2.851c0.014-1.544,0.029-3.141,0.098-4.705
				c0.015-0.33,0.035-0.668,0.055-1.011c0.074-1.259,0.151-2.56-0.006-3.761c-0.008-0.059,0.034-0.113,0.093-0.12
				c0.059-0.01,0.113,0.034,0.121,0.092c0.16,1.221,0.082,2.533,0.007,3.801c-0.02,0.341-0.04,0.678-0.055,1.008
				c-0.068,1.561-0.083,3.155-0.097,4.697c-0.009,0.936-0.018,1.904-0.038,2.854c-0.03,1.344-0.036,2.711-0.042,4.033
				c-0.008,1.74-0.017,3.539-0.078,5.312c-0.013,0.375-0.014,0.765-0.016,1.159c-0.004,1.023-0.008,2.081-0.209,3.027
				C183.664,275.901,183.619,275.935,183.569,275.935z"/>
		</g>
		<path style="fill:#FFFFFF;" d="M199.019,261.182c-1.138-5.025-2.788-8.726-5.093-10.483c0,0,9.436-24.811,6.56-30.278
			c-0.511-0.975-1.589-1.753-2.96-2.374c-4.938-2.236-13.692-2.438-13.692-2.438s-14.577-0.796-17.143,3.284
			c-2.696,4.29,5.371,30.927,5.371,30.927s-3.592,3.343-6.581,10.564C170.497,262.911,184.692,268.624,199.019,261.182z"/>
		<g>
			<g>
				<defs>
					<path id="XMLID_14_" d="M189.302,211.2c0,0,8.36-0.57,10.499-8.222c2.327-8.315,2.209-20.966-3.76-26.478
						c-5.965-5.511-26.68-6.724-29.045,8.38c-2.143,13.666,3.059,22.362,12.624,26.508v6.276c0,0,3.696,5.34,9.755,0.739
						L189.302,211.2z"/>
				</defs>
				<use xlink:href="#XMLID_14_"  style="overflow:visible;fill:#FFA05F;"/>
				<clipPath id="XMLID_00000131368035867892082380000004212360192485332141_">
					<use xlink:href="#XMLID_14_"  style="overflow:visible;"/>
				</clipPath>
				<path style="clip-path:url(#XMLID_00000131368035867892082380000004212360192485332141_);fill:#F48656;" d="M176.373,200.962
					c0,2.637,2.138,4.776,4.775,4.776c2.637,0,4.776-2.138,4.776-4.776c0-2.638-2.138-4.776-4.776-4.776
					C178.511,196.186,176.373,198.324,176.373,200.962z"/>
				<path style="clip-path:url(#XMLID_00000131368035867892082380000004212360192485332141_);fill:#F48656;" d="M194.722,200.485
					c0,2.637,2.138,4.776,4.775,4.776c2.637,0,4.776-2.138,4.776-4.776c0-2.637-2.138-4.775-4.776-4.775
					C196.86,195.71,194.722,197.848,194.722,200.485z"/>
			</g>
			<g>
				<path d="M193.158,202.122c-0.034,0-0.068-0.016-0.088-0.046c-0.034-0.049-0.022-0.116,0.027-0.15
					c0.129-0.09,0.25-0.285,0.357-0.457c0.041-0.067,0.081-0.131,0.119-0.185c0.24-0.343,0.659-1.113,0.522-1.572
					c-0.032-0.085-0.412-0.262-0.574-0.337c-0.115-0.053-0.206-0.096-0.255-0.129c-0.497-0.337-1.186-0.888-1.653-1.598
					c-0.822-1.244-1.236-2.976-1.135-4.751c0.112-1.993,1.047-3.981,2.439-5.188c1.027-0.889,2.247-1.301,3.524-1.19
					c0.572,0.05,1.183,0.146,1.77,0.51c0.05,0.031,0.066,0.098,0.035,0.148c-0.031,0.05-0.098,0.066-0.148,0.035
					c-0.518-0.321-1.044-0.424-1.675-0.479c-1.219-0.106-2.383,0.288-3.365,1.138c-1.35,1.17-2.257,3.1-2.366,5.037
					c-0.098,1.73,0.303,3.414,1.1,4.621c0.447,0.68,1.114,1.212,1.594,1.538c0.035,0.023,0.127,0.066,0.225,0.112
					c0.372,0.173,0.639,0.308,0.689,0.47c0.16,0.538-0.272,1.358-0.552,1.757c-0.035,0.051-0.073,0.112-0.112,0.175
					c-0.118,0.19-0.251,0.405-0.417,0.52C193.201,202.116,193.179,202.122,193.158,202.122z"/>
				<path d="M187.6,188.559c-0.028,0-0.056-0.011-0.078-0.033c-1.71-1.786-4.117-2.415-6.439-1.682
					c-0.541,0.171-0.936,0.495-1.354,0.838c-0.229,0.188-0.465,0.381-0.727,0.548c-0.05,0.032-0.116,0.017-0.148-0.033
					c-0.032-0.05-0.017-0.117,0.033-0.148c0.251-0.16,0.482-0.349,0.706-0.533c0.416-0.341,0.846-0.694,1.426-0.877
					c2.401-0.758,4.891-0.108,6.659,1.738c0.041,0.043,0.04,0.111-0.003,0.152C187.654,188.549,187.627,188.559,187.6,188.559z"/>
				<path d="M185.388,191.558c-0.047,0-0.09-0.031-0.103-0.078c-0.016-0.057,0.017-0.117,0.074-0.133
					c1.053-0.302,0.994-1.732,0.993-1.746c-0.003-0.059,0.043-0.11,0.102-0.113c0.057-0.002,0.11,0.043,0.113,0.102
					c0.001,0.016,0.07,1.615-1.148,1.964C185.408,191.557,185.398,191.558,185.388,191.558z"/>
				<path d="M198.02,191.332c-0.047,0-0.09-0.031-0.103-0.078c-0.016-0.057,0.017-0.117,0.074-0.133
					c1.053-0.302,0.994-1.732,0.993-1.747c-0.003-0.059,0.043-0.11,0.102-0.113c0.056-0.001,0.11,0.043,0.113,0.102
					c0.001,0.016,0.069,1.615-1.149,1.964C198.04,191.331,198.03,191.332,198.02,191.332z"/>
				<g>
					<defs>
						<path id="XMLID_13_" d="M180.02,195.023c-0.942-2.299-0.161-4.741,1.746-5.456c1.905-0.714,4.216,0.57,5.158,2.869
							c0.942,2.299,0.161,4.741-1.746,5.456C183.273,198.606,180.962,197.321,180.02,195.023z"/>
					</defs>
					<use xlink:href="#XMLID_13_"  style="overflow:visible;fill:#FFFFFF;"/>
					<clipPath id="XMLID_00000173127871493623568860000013885997610892138654_">
						<use xlink:href="#XMLID_13_"  style="overflow:visible;"/>
					</clipPath>
					<path style="clip-path:url(#XMLID_00000173127871493623568860000013885997610892138654_);fill:#75421C;" d="M182.195,194.424
						c0.038,2.043,1.515,3.673,3.299,3.64c1.784-0.033,3.201-1.716,3.163-3.759c-0.038-2.043-1.515-3.672-3.299-3.64
						C183.573,190.698,182.157,192.381,182.195,194.424z"/>
				</g>
				<g>
					<defs>
						<path id="XMLID_12_" d="M199.063,193.496c0.245-2.471-1.109-4.598-3.024-4.752c-1.915-0.154-3.665,1.724-3.908,4.194
							c-0.245,2.47,1.109,4.598,3.024,4.752C197.071,197.844,198.821,195.966,199.063,193.496z"/>
					</defs>
					<use xlink:href="#XMLID_12_"  style="overflow:visible;fill:#FFFFFF;"/>
					<clipPath id="XMLID_00000047027852057357618270000010394150375900372409_">
						<use xlink:href="#XMLID_12_"  style="overflow:visible;"/>
					</clipPath>
					<path style="clip-path:url(#XMLID_00000047027852057357618270000010394150375900372409_);fill:#75421C;" d="M193.722,194.327
						c0.038,2.043,1.515,3.673,3.299,3.64c1.784-0.033,3.201-1.716,3.163-3.759c-0.038-2.043-1.515-3.673-3.299-3.64
						C195.101,190.602,193.685,192.284,193.722,194.327z"/>
				</g>
				<path d="M188.505,206.591c0.092,0.007,0.181,0.01,0.267,0.009c0.059,0,0.107-0.049,0.107-0.108
					c-0.001-0.059-0.049-0.105-0.108-0.107c-0.91,0.005-1.937-0.378-2.495-0.929c-0.042-0.041-0.11-0.041-0.152,0.001
					c-0.042,0.042-0.041,0.11,0.001,0.152C186.75,206.227,187.724,206.536,188.505,206.591z"/>
				<g>
					<g>
						<defs>
							<path id="XMLID_15_" d="M192.547,202.826c0,0-4.625,0.791-7.171-2.45c0,0-0.251,3.875,2.295,4.773
								C191.199,206.391,192.547,202.826,192.547,202.826z"/>
						</defs>
						<use xlink:href="#XMLID_15_"  style="overflow:visible;fill:#421C0D;"/>
						<clipPath id="XMLID_00000050636344431115515540000011687225848882047366_">
							<use xlink:href="#XMLID_15_"  style="overflow:visible;"/>
						</clipPath>
						<path style="clip-path:url(#XMLID_00000050636344431115515540000011687225848882047366_);fill:#ED765F;" d="M185.376,200.375
							c0.943,1.2,2.171,1.847,3.344,2.186c0.335,0.778,0.544,1.766,0.253,2.845c-0.396-0.014-0.829-0.092-1.302-0.259
							C185.126,204.251,185.376,200.375,185.376,200.375z"/>
						<path style="clip-path:url(#XMLID_00000050636344431115515540000011687225848882047366_);fill:#FFFFFF;" d="M185.065,201.368
							c0,0,0.66,0.819,1.748,1.5c1.546,0.968,3.864,1.345,4.831-0.267l-6.431-3.322L185.065,201.368z"/>
					</g>
				</g>
			</g>
			<path d="M174.056,199.673c-0.059,0-0.107-0.048-0.107-0.107c0-2.294-1.389-5.443-3.456-6.475
				c-0.053-0.026-0.075-0.091-0.048-0.144c0.027-0.053,0.091-0.075,0.144-0.048c2.138,1.067,3.575,4.309,3.575,6.667
				C174.164,199.625,174.116,199.673,174.056,199.673z"/>
			<path style="fill:#232228;" d="M194.83,175.222c-7.214-4.84-26.088-5.369-28.359,9.142c-2.179,13.894,2.248,23.376,13.15,27.025
				l-6.41-7.786c-6.174-2.026-6.773-11.836-3.454-12.852c3.315-1.016,5.207,3.87,5.207,3.87s6.305-4.808,5.855-16.121
				c0,0,9.049,7.147,19.892,7.828C200.709,186.329,201.784,179.051,194.83,175.222z"/>
		</g>
		<g>
			<g>
				<path style="fill:#FFA05F;" d="M129.953,286.863c-3.856,3.482-10.993,6.652-12.987,4.077c-1.645-2.123,0.198-6.341,2.803-9.646
					c1.983-2.518,5.444-4.059,5.444-4.059s-7.173-0.373-4.566-2.647c2.606-2.274,12.429-0.945,12.429-0.945
					c4.971-16.712,15.962-26.464,15.962-26.464s2.62-8.575,9.066-19.192c5.855-9.644,11.448-11.034,11.448-11.034
					s2.551,4.869,0.541,12.248c-2.01,7.379-11.49,22.366-14.467,26.702c-6.337,9.227-18.458,21.9-18.458,21.9
					S134.902,282.398,129.953,286.863z"/>
				<g>
					<path d="M116.462,287.875c-0.022-0.004-0.044-0.015-0.061-0.033c-0.04-0.044-0.037-0.112,0.007-0.152
						c0.063-0.058,6.198-5.235,7.23-5.92c0.006-0.016,0.015-0.03,0.028-0.042l0.015,0.014c0.054-0.034,0.09-0.049,0.099-0.046
						c0.037,0.012,0.064,0.042,0.072,0.08c0.008,0.038-0.013,0.086-0.042,0.112c-0.01,0.009-0.02,0.016-0.032,0.02
						c-0.413,0.309-5.58,4.434-7.226,5.94C116.527,287.871,116.493,287.88,116.462,287.875z"/>
					<path d="M116.89,290.902c-0.023-0.004-0.044-0.015-0.061-0.033c-0.04-0.044-0.037-0.112,0.007-0.152
						c0.933-0.854,2.403-2.045,3.958-3.307c1.629-1.321,3.313-2.687,4.385-3.674c0.044-0.04,0.111-0.038,0.152,0.006
						c0.04,0.044,0.037,0.112-0.006,0.152c-1.077,0.993-2.764,2.361-4.395,3.684c-1.553,1.259-3.02,2.449-3.949,3.299
						C116.955,290.898,116.922,290.907,116.89,290.902z"/>
					<path d="M118.949,291.953c-0.028-0.005-0.053-0.02-0.07-0.045c-0.034-0.049-0.021-0.116,0.028-0.15
						c2.177-1.499,4.589-3.577,7.775-6.444c0.044-0.04,0.112-0.036,0.152,0.008c0.04,0.044,0.036,0.112-0.008,0.152
						c-3.193,2.872-5.61,4.956-7.797,6.461C119.004,291.952,118.976,291.958,118.949,291.953z"/>
					<path d="M127.237,285.839c-0.018-0.003-0.035-0.011-0.05-0.023c-1.752-1.47-3.305-3.38-4.258-5.24
						c-0.027-0.053-0.006-0.118,0.046-0.145c0.053-0.027,0.118-0.006,0.145,0.047c0.941,1.835,2.474,3.721,4.205,5.173
						c0.046,0.038,0.051,0.106,0.013,0.151C127.312,285.833,127.273,285.846,127.237,285.839z"/>
				</g>
			</g>
		</g>
		<g>
			<g>
				<path style="fill:#FF9536;" d="M163.882,362.838c0,0-16.279,7.008-17.736,13.456c-1.458,6.451,23.752-2.971,27.116-6.458
					c0,0,0.367-2.007,0.886-5.32C167.567,365.806,163.882,362.838,163.882,362.838z"/>
			</g>
			<path style="fill:#F8F8F8;" d="M157.313,373.52c-0.116-0.035-0.199-0.134-0.276-0.229c-1.311-1.61-2.91-2.983-4.691-4.05
				c-3.053,2.168-5.657,4.65-6.201,7.054c-1.458,6.451,23.752-2.971,27.116-6.458c0,0,0.215-1.179,0.548-3.21
				c-5.314,2.396-10.71,4.614-16.103,6.828C157.58,373.506,157.443,373.558,157.313,373.52z"/>
		</g>
		<g>
			<g>
				<path style="fill:#FF9536;" d="M195.37,361.554c-2.516,2.531-6.376,2.476-8.394,2.234c0.477,2.314,1.003,4.728,1.585,7.247
					c0,0,23.23,12.615,25.115,7.699C215.56,373.817,195.37,361.554,195.37,361.554z"/>
			</g>
			<path style="fill:#F8F8F8;" d="M207.108,369.783c-1.845,1.001-3.471,2.405-4.678,4.123c-5.378-2.263-9.724-4.68-14.782-6.954
				c0.289,1.332,0.591,2.688,0.913,4.083c0,0,23.23,12.615,25.115,7.698C214.494,376.6,211.151,373.082,207.108,369.783z"/>
		</g>
		<path style="fill:#FFFFFF;" d="M169.551,216.951c0,0-5.593,1.39-11.448,11.034c-0.794,1.308-1.529,2.584-2.209,3.818
			c2.334,0.639,6.442,2.285,10.354,6.365c1.749-3.375,3.191-6.574,3.844-8.969C172.102,221.82,169.551,216.951,169.551,216.951z"/>
	</g>
</g>
<g id="DESIGNED_BY_FREEPIK">
	<g>
		<g id="XMLID_319_">
			<g id="XMLID_338_">
				<path id="XMLID_346_" style="fill:#1D262D;" d="M385.104,465.465c-0.433,0.443-0.804,0.932-1.108,1.453l-0.465-0.241
					c-0.067-0.297-0.35-0.502-0.659-0.466c-0.331,0.039-0.567,0.339-0.529,0.67c0.039,0.331,0.339,0.567,0.67,0.528
					c0.066-0.007,0.127-0.025,0.184-0.052l0.451,0.234c-0.251,0.554-0.433,1.139-0.539,1.743l0.747,0.132
					c0.229-1.306,0.85-2.507,1.792-3.473L385.104,465.465z"/>
				<path id="XMLID_345_" style="fill:#1D262D;" d="M390.591,463.163c-0.171,0-0.341,0.006-0.509,0.017l-0.074-0.626
					c0.188-0.149,0.296-0.389,0.266-0.645c-0.046-0.393-0.402-0.674-0.795-0.628c-0.393,0.046-0.675,0.402-0.628,0.796
					c0.03,0.254,0.19,0.461,0.404,0.563l0.073,0.624c-0.714,0.116-1.402,0.332-2.06,0.645l0.327,0.685
					c0.935-0.447,1.941-0.674,2.995-0.674c0.497,0,0.993,0.053,1.476,0.158l0.16-0.741
					C391.692,463.222,391.142,463.163,390.591,463.163z"/>
				<path id="XMLID_344_" style="fill:#1D262D;" d="M397.194,465.71c0.331-0.04,0.566-0.341,0.525-0.672
					c-0.04-0.331-0.341-0.566-0.672-0.525c-0.31,0.038-0.535,0.304-0.53,0.608l-0.416,0.363c-0.418-0.43-0.89-0.813-1.407-1.14
					l-0.404,0.642c1.135,0.715,2.021,1.727,2.564,2.925l0.69-0.313c-0.251-0.554-0.567-1.071-0.942-1.545l0.402-0.351
					C397.065,465.715,397.129,465.719,397.194,465.71z"/>
				<path id="XMLID_343_" style="fill:#1D262D;" d="M390.045,473.371c-0.386,0.023-0.775,0.035-1.157,0.035
					c-0.88,0-1.733-0.061-2.478-0.18c-0.391-0.061-0.846-0.154-1.271-0.292c1.047,1.861,3.069,3.125,5.389,3.125
					c2.855,0,5.263-1.916,5.949-4.503c-0.682,0.449-1.505,0.825-2.458,1.122C392.839,473.047,391.464,473.286,390.045,473.371z"/>
				<path id="XMLID_339_" style="fill:#1D262D;" d="M390.591,464.68c-3.352,0-6.079,2.666-6.079,5.943
					c0,0.425,0.046,0.849,0.137,1.261c0.674,0.483,2.706,0.891,5.348,0.731c2.88-0.174,5.297-0.958,6.672-2.159
					c-0.005-0.194-0.021-0.39-0.045-0.581C396.244,466.913,393.65,464.68,390.591,464.68z M388.432,471.195
					c-1.02,0-1.85-0.83-1.85-1.85c0-1.021,0.83-1.85,1.85-1.85c1.02,0,1.85,0.83,1.85,1.85
					C390.282,470.365,389.452,471.195,388.432,471.195z M393.17,470.286c-0.75,0-1.36-0.61-1.36-1.36s0.61-1.36,1.36-1.36
					s1.36,0.61,1.36,1.36S393.92,470.286,393.17,470.286z"/>
			</g>
			<path id="XMLID_336_" style="fill:#1D262D;" d="M406.595,466.547c-0.295-0.116-0.806-0.31-1.383-0.238
				c-0.551,0.069-0.844,0.341-0.844,1.007v0.866h2.228v1.717h-2.228v5.455h-1.932v-5.455h-1.339v-1.717h1.339v-0.889
				c0-1.68,0.896-2.782,2.568-2.782c0.643,0,1.157,0.121,1.59,0.308V466.547z"/>
			<path id="XMLID_334_" style="fill:#1D262D;" d="M411.297,469.878c-0.177-0.029-0.357-0.046-0.525-0.046
				c-0.896,0-1.51,0.548-1.51,1.613v3.908h-1.933v-7.172h1.873v0.784c0.451-0.673,1.14-0.977,2.021-0.977
				c0.414,0,0.848,0.128,1.095,0.337L411.297,469.878z"/>
			<path id="XMLID_331_" style="fill:#1D262D;" d="M418.966,471.757c0,0.222-0.016,0.488-0.037,0.651h-5.085
				c0.207,1.036,0.933,1.487,1.843,1.487c0.622,0,1.295-0.252,1.813-0.689l1.133,1.243c-0.814,0.748-1.851,1.089-3.057,1.089
				c-2.198,0-3.724-1.496-3.724-3.753c0-2.258,1.48-3.797,3.627-3.797C417.544,467.99,418.958,469.522,418.966,471.757z
				 M413.851,471.091h3.175c-0.178-0.918-0.732-1.436-1.562-1.436C414.554,469.655,414.021,470.203,413.851,471.091z"/>
			<path id="XMLID_328_" style="fill:#1D262D;" d="M426.619,471.757c0,0.222-0.016,0.488-0.037,0.651h-5.085
				c0.207,1.036,0.933,1.487,1.843,1.487c0.622,0,1.296-0.252,1.814-0.689l1.133,1.243c-0.814,0.748-1.851,1.089-3.058,1.089
				c-2.198,0-3.723-1.496-3.723-3.753c0-2.258,1.481-3.797,3.627-3.797C425.197,467.99,426.611,469.522,426.619,471.757z
				 M421.504,471.091h3.175c-0.178-0.918-0.733-1.436-1.561-1.436C422.208,469.655,421.674,470.203,421.504,471.091z"/>
			<path id="XMLID_325_" style="fill:#1D262D;" d="M434.965,471.764c0,2.154-1.495,3.775-3.472,3.775
				c-0.962,0-1.643-0.378-2.109-0.933v3.708h-1.925v-10.133h1.888v0.792c0.467-0.585,1.154-0.984,2.139-0.984
				C433.469,467.99,434.965,469.611,434.965,471.764z M429.287,471.764c0,1.133,0.748,1.977,1.844,1.977
				c1.14,0,1.85-0.881,1.85-1.977c0-1.095-0.71-1.976-1.85-1.976C430.035,469.788,429.287,470.632,429.287,471.764z"/>
			<path id="XMLID_322_" style="fill:#1D262D;" d="M438.068,465.835c0,0.696-0.541,1.229-1.236,1.229
				c-0.696,0-1.228-0.533-1.228-1.229c0-0.695,0.532-1.243,1.228-1.243C437.527,464.592,438.068,465.14,438.068,465.835z
				 M437.808,475.354h-1.932v-7.172h1.932V475.354z"/>
			<path id="XMLID_320_" style="fill:#1D262D;" d="M441.032,470.736l2.702-2.554h2.368l-3.479,3.375l3.501,3.797h-2.376
				l-2.717-2.901v2.901H439.1v-10.658h1.932V470.736z"/>
		</g>
		<g>
			<path style="fill:#1D262D;" d="M309.412,475.289v-1.055c-0.527,0.718-1.391,1.23-2.387,1.23c-1.846,0-3.149-1.406-3.149-3.706
				c0-2.256,1.289-3.721,3.149-3.721c0.952,0,1.816,0.469,2.387,1.245v-3.765h1.099v9.771H309.412z M309.412,473.37v-3.208
				c-0.395-0.615-1.245-1.143-2.124-1.143c-1.42,0-2.27,1.172-2.27,2.739c0,1.567,0.85,2.725,2.27,2.725
				C308.168,474.484,309.017,473.986,309.412,473.37z"/>
			<path style="fill:#1D262D;" d="M311.932,471.745c0-2.051,1.465-3.706,3.486-3.706c2.139,0,3.398,1.67,3.398,3.794v0.278h-5.727
				c0.088,1.333,1.025,2.446,2.549,2.446c0.806,0,1.626-0.322,2.182-0.894l0.527,0.718c-0.703,0.703-1.655,1.084-2.812,1.084
				C313.441,475.465,311.932,473.956,311.932,471.745z M315.404,468.947c-1.509,0-2.256,1.274-2.314,2.358h4.644
				C317.718,470.25,317.015,468.947,315.404,468.947z"/>
			<path style="fill:#1D262D;" d="M319.607,474.352l0.571-0.791c0.469,0.542,1.362,1.011,2.329,1.011c1.084,0,1.67-0.513,1.67-1.216
				c0-1.714-4.38-0.659-4.38-3.281c0-1.099,0.952-2.036,2.636-2.036c1.202,0,2.051,0.454,2.623,1.025l-0.513,0.762
				c-0.424-0.513-1.201-0.893-2.109-0.893c-0.966,0-1.567,0.483-1.567,1.113c0,1.553,4.379,0.527,4.379,3.281
				c0,1.186-0.952,2.139-2.783,2.139C321.306,475.465,320.325,475.114,319.607,474.352z"/>
			<path style="fill:#1D262D;" d="M326.477,466.471c0-0.41,0.337-0.747,0.732-0.747c0.41,0,0.747,0.337,0.747,0.747
				c0,0.41-0.337,0.732-0.747,0.732C326.814,467.203,326.477,466.881,326.477,466.471z M326.667,475.289v-7.075h1.099v7.075H326.667
				z"/>
			<path style="fill:#1D262D;" d="M329.582,477.106l0.556-0.82c0.586,0.703,1.289,0.967,2.3,0.967c1.172,0,2.271-0.571,2.271-2.124
				v-1.011c-0.513,0.718-1.377,1.26-2.373,1.26c-1.846,0-3.149-1.377-3.149-3.662c0-2.271,1.289-3.677,3.149-3.677
				c0.952,0,1.802,0.469,2.373,1.245v-1.069h1.099v6.87c0,2.344-1.641,3.076-3.369,3.076
				C331.237,478.16,330.417,477.925,329.582,477.106z M334.709,473.253v-3.091c-0.381-0.615-1.23-1.143-2.109-1.143
				c-1.421,0-2.27,1.128-2.27,2.695c0,1.553,0.849,2.695,2.27,2.695C333.478,474.41,334.328,473.868,334.709,473.253z"/>
			<path style="fill:#1D262D;" d="M342.413,475.289v-4.629c0-1.245-0.63-1.641-1.582-1.641c-0.864,0-1.685,0.527-2.094,1.099v5.171
				h-1.099v-7.075h1.099v1.025c0.498-0.586,1.464-1.201,2.519-1.201c1.479,0,2.256,0.747,2.256,2.285v4.966H342.413z"/>
			<path style="fill:#1D262D;" d="M344.932,471.745c0-2.051,1.465-3.706,3.486-3.706c2.139,0,3.398,1.67,3.398,3.794v0.278h-5.727
				c0.088,1.333,1.025,2.446,2.548,2.446c0.806,0,1.626-0.322,2.183-0.894l0.527,0.718c-0.703,0.703-1.655,1.084-2.813,1.084
				C346.442,475.465,344.932,473.956,344.932,471.745z M348.404,468.947c-1.509,0-2.256,1.274-2.314,2.358h4.643
				C350.718,470.25,350.015,468.947,348.404,468.947z"/>
			<path style="fill:#1D262D;" d="M358.35,475.289v-1.055c-0.527,0.718-1.392,1.23-2.388,1.23c-1.845,0-3.149-1.406-3.149-3.706
				c0-2.256,1.289-3.721,3.149-3.721c0.952,0,1.817,0.469,2.388,1.245v-3.765h1.098v9.771H358.35z M358.35,473.37v-3.208
				c-0.396-0.615-1.245-1.143-2.124-1.143c-1.421,0-2.271,1.172-2.271,2.739c0,1.567,0.85,2.725,2.271,2.725
				C357.105,474.484,357.954,473.986,358.35,473.37z"/>
			<path style="fill:#1D262D;" d="M364.692,475.289v-9.771h1.099v3.765c0.571-0.776,1.421-1.245,2.388-1.245
				c1.845,0,3.149,1.465,3.149,3.721c0,2.3-1.304,3.706-3.149,3.706c-0.996,0-1.86-0.513-2.388-1.23v1.055H364.692z M367.9,474.484
				c1.436,0,2.285-1.157,2.285-2.725c0-1.567-0.85-2.739-2.285-2.739c-0.864,0-1.729,0.527-2.109,1.143v3.208
				C366.172,473.986,367.036,474.484,367.9,474.484z"/>
			<path style="fill:#1D262D;" d="M372.529,477.062c0.161,0.073,0.425,0.117,0.601,0.117c0.483,0,0.806-0.161,1.055-0.747
				l0.469-1.069l-2.959-7.148h1.186l2.358,5.801l2.344-5.801h1.2l-3.544,8.511c-0.425,1.024-1.143,1.421-2.08,1.436
				c-0.234,0-0.601-0.044-0.806-0.103L372.529,477.062z"/>
		</g>
	</g>
</g>
</svg>
